<svg width="280" height="280" viewBox="0 0 280 280" fill="none" xmlns="http://www.w3.org/2000/svg">
<rect width="280" height="280" rx="13.5484" fill="black"/>
<path fill-rule="evenodd" clip-rule="evenodd" d="M128.374 78.2774C142.491 71.0008 151.461 60.2912 148.399 54.3567C145.344 48.4221 131.416 49.51 117.3 56.7865C103.183 64.063 94.213 74.7726 97.2747 80.7072C100.33 86.6418 114.258 85.5539 128.374 78.2774ZM134.289 87.3714C118.277 96.6152 100.167 95.2277 93.8416 84.2705C87.5162 73.3134 95.3725 56.9363 111.385 47.6925C127.397 38.4486 145.507 39.8362 151.832 50.7933C153.335 53.3962 154.037 56.3049 154.02 59.3512C154.021 59.3734 154.021 59.3957 154.021 59.418V214.625C161.11 210.096 168.438 205.013 174.365 199.184C177.681 195.718 180.853 192.122 182.554 187.699C185.186 180.526 184.443 172.253 181.739 165.113C181.446 164.332 181.831 163.465 182.599 163.153C183.407 162.82 184.339 163.231 184.632 164.058C185.635 166.911 186.482 169.797 187.127 172.755C189.882 185.536 188.065 193.607 180.697 204.31C172.979 215.627 163.512 225.424 154.021 235.236V235.853C154.021 237.266 152.861 238.426 151.448 238.426H151.35L151.357 238.419C149.943 238.419 148.783 237.26 148.783 235.846V134.39C145.381 139.331 140.436 143.931 134.289 147.479C118.277 156.723 100.167 155.335 93.8418 144.378C87.5164 133.421 95.3727 117.044 111.385 107.8C125.307 99.7632 140.814 99.7629 148.783 107.101V74.2818C145.381 79.2228 140.436 83.8227 134.289 87.3714ZM148.399 114.458C151.461 120.392 142.491 131.102 128.374 138.379C114.258 145.655 100.33 146.743 97.2748 140.808C94.2131 134.874 103.183 124.164 117.3 116.888C131.417 109.611 145.344 108.523 148.399 114.458Z" fill="#D9B077"/>
</svg>
